# xmcd
#
# Track frame offsets:
#	183
#	13098
#	25620
#	38470
#	51790
#	65255
#	79883
#	92890
#	105493
#	119768
#	140435
#	154375
#	176220
#	189005
#	205490
#	223345
#	256378
#	276030
#
# Disc length: 3953 seconds
#
# Revision: 2
# Processed by: cddbd v1.5.2PL0 Copyright (c) Steve Scherf et al.
# Submitted via: audiograbber 1.83.01
#
DISCID=020f6f12
DTITLE=The Four Tops - 2005 - Gold [CD2)
DYEAR=2005
DGENRE=Soul
TTITLE0=You Keep Running Away
TTITLE1=Walk Away Renee
TTITLE2=If I Were A Carpenter
TTITLE3=Yesterday's Dreams
TTITLE4=I'm In A Different World
TTITLE5=Can't Seem To Get You Out Of My Mind
TTITLE6=Don't Let Him Take Your Love From Me
TTITLE7=It's All In The Game
TTITLE8=Still Water (Love)
TTITLE9=River Deep - Mountain High (With The Supremes)
TTITLE10=Just Seven Numbers (Can Straighten Out My Life)
TTITLE11=In These Changing Times
TTITLE12=You Gotta Have Love In Your Heart (With The Supremes)
TTITLE13=I Can't Quit Your Love
TTITLE14=(It's The Way) Nature Planned It
TTITLE15=Medley - Hey Man - We Got To Get You A Woman
TTITLE16=I Just Can't Walk Away
TTITLE17=Don't Tell Me That It's Over
EXTD=
EXTT0=
EXTT1=
EXTT2=
EXTT3=
EXTT4=
EXTT5=
EXTT6=
EXTT7=
EXTT8=
EXTT9=
EXTT10=
EXTT11=
EXTT12=
EXTT13=
EXTT14=
EXTT15=
EXTT16=
EXTT17=
PLAYORDER=
